{"title":"Parenthood (1989) Steve Martin + Keanu Reeves (DVDrip)","uid":4361523,"size":734250541,"categoryP":"video","categoryS":"movies","magnet":"?xt=urn:btih:f412bf009265539c7a597b0ba59be5c23edef371&amp;dn=Parenthood+%281989%29+Steve+Martin+%2B+Keanu+Reeves+%28DVDrip%29&amp;tr=udp%3A%2F%2Ftracker.openbittorrent.com%3A80&amp;tr=udp%3A%2F%2Fopen.demonii.com%3A1337&amp;tr=udp%3A%2F%2Ftracker.coppersurfer.tk%3A6969&amp;tr=udp%3A%2F%2Fexodus.desync.com%3A6969","seeders":13,"leechers":4,"uploader":"Kuthumi","files":-1,"time":1219679293,"description":" &lt;a href=&quot;http://www.imdb.com/title/tt0098067/&quot; rel=&quot;nofollow&quot; target=&quot;_NEW&quot;&gt;http://www.imdb.com/title/tt0098067/&lt;/a&gt;\n\nDirected by Ron Howard\n\nNoisy but charming family comedy, noteworthy because it was one of Keanu Reeves' (then 25) first films, as a horny lover. I could not find this film on PB but this torrent is available on the net, so I thought it should be represented here. It is not my rip, quality is not superb, but it's certainly worth a look. \n\nFullscreen 649x576, good stereo.\n\nBurn tested, runs well in both my standalone DivX players.\n\nFormat/Info                      : Audio Video Interleave\nFile size                        : 700 MiB\nDuration                         : 2h 3mn\nOveral bit rate                  : 791 Kbps\n\nVideo\nFormat                           : MPEG-4 Visual\nFormat settings, BVOP            : Yes\nFormat settings, QPel            : No\nFormat settings, GMC             : No warppoints\nFormat settings, Matrix          : Default\nCodec ID                         : DIVX\nCodec ID/Info                    : Project Mayo\nCodec ID/Hint                    : DivX 4\nDuration                         : 2h 3mn\nBit rate                         : 649 Kbps\nWidth                            : 576 pixels\nHeight                           : 384 pixels\nDisplay aspect ratio             : 1.500\nFrame rate                       : 29.971 fps\nResolution                       : 8 bits\nScan type                        : Progressive\nBits/(Pixel*Frame)               : 0.098\nStream size                      : 574 MiB\n\nAudio\nFormat                           : MPEG Audio\nFormat version                   : Version 1\nFormat profile                   : Layer 3\nCodec ID                         : 55\nCodec ID/Hint                    : MP3\nBit rate mode                    : Constant\nBit rate                         : 128 Kbps\nChannel(s)                       : 2 channels\nSampling rate                    : 48.0 KHz\nResolution                       : 16 bits\nStream size                      : 113 MiB\n","torrent":{"xt":"urn:btih:f412bf009265539c7a597b0ba59be5c23edef371","amp;dn":"Parenthood+%281989%29+Steve+Martin+%2B+Keanu+Reeves+%28DVDrip%29","amp;tr":["udp%3A%2F%2Ftracker.openbittorrent.com%3A80","udp%3A%2F%2Fopen.demonii.com%3A1337","udp%3A%2F%2Ftracker.coppersurfer.tk%3A6969","udp%3A%2F%2Fexodus.desync.com%3A6969"],"infoHash":"f412bf009265539c7a597b0ba59be5c23edef371","infoHashBuffer":{"type":"Buffer","data":[244,18,191,0,146,101,83,156,122,89,123,11,165,155,229,194,62,222,243,113]},"announce":[],"urlList":[]}}